<svg id="svg" version="1.1" xmlns="http://www.w3.org/2000/svg" xmlns:xlink="http://www.w3.org/1999/xlink" width="400" height="400" viewBox="0, 0, 400,400"><g id="svgg"><path id="path0" d="M152.500 126.661 C 152.117 126.818,152.000 129.393,152.000 137.615 L 152.000 148.364 153.300 148.599 C 154.015 148.728,158.650 148.781,163.600 148.717 L 172.600 148.600 172.600 137.600 L 172.600 126.600 162.800 126.528 C 157.410 126.488,152.775 126.548,152.500 126.661 M199.756 151.100 L 198.200 152.200 187.600 152.400 L 177.000 152.600 177.000 162.728 L 177.000 172.857 186.248 172.815 C 198.187 172.762,198.311 172.783,199.924 175.147 L 201.200 177.017 201.200 188.335 C 201.200 196.656,201.068 199.884,200.700 200.526 C 199.923 201.883,199.734 222.481,200.492 223.111 C 201.432 223.890,222.722 223.975,223.031 223.200 C 223.163 222.870,223.249 212.430,223.223 200.000 L 223.176 177.400 224.288 176.166 C 227.093 173.052,227.028 173.067,237.823 173.032 C 243.162 173.014,247.657 172.874,247.812 172.720 C 248.408 172.126,248.175 153.156,247.567 152.771 C 247.255 152.574,242.743 152.409,237.541 152.406 L 228.081 152.400 225.800 151.200 L 223.519 150.000 212.415 150.000 L 201.312 150.000 199.756 151.100 " stroke="none" fill="#c0a169" fill-rule="evenodd"></path><path id="path1" d="M176.629 77.661 C 175.776 79.371,175.714 96.990,176.557 98.100 C 177.098 98.813,195.471 99.199,197.900 98.548 L 198.800 98.307 198.800 87.997 L 198.800 77.687 197.192 77.043 C 195.878 76.518,193.907 76.400,186.421 76.400 L 177.259 76.400 176.629 77.661 M200.968 102.540 C 200.422 103.961,201.001 123.231,201.600 123.609 C 201.937 123.822,206.763 123.990,212.620 123.994 L 223.039 124.000 223.520 122.672 C 224.319 120.462,224.185 102.557,223.367 102.243 C 221.953 101.700,201.184 101.976,200.968 102.540 M148.100 176.700 L 126.000 176.807 126.000 187.749 C 126.000 198.193,125.962 198.740,125.176 199.740 L 124.352 200.788 113.094 200.894 L 101.836 201.000 101.558 202.000 C 100.842 204.576,101.170 273.502,101.900 273.803 C 102.285 273.962,106.740 274.064,111.800 274.029 C 121.544 273.963,124.631 274.281,125.478 275.439 C 125.876 275.984,126.000 278.685,126.000 286.844 C 126.000 292.724,126.109 297.819,126.243 298.167 C 126.563 299.001,222.688 299.152,223.520 298.320 C 224.445 297.395,224.185 252.291,223.250 251.445 C 222.561 250.822,220.614 250.770,199.550 250.814 C 186.927 250.841,176.278 250.737,175.885 250.583 C 174.276 249.953,174.000 248.041,174.000 237.531 C 174.000 222.906,172.778 224.029,188.700 224.013 C 200.312 224.001,201.344 223.904,200.361 222.921 C 200.057 222.617,199.965 219.176,200.061 211.741 L 200.200 201.000 187.665 201.000 L 175.131 201.000 174.154 199.864 L 173.177 198.728 173.213 187.903 C 173.252 176.283,173.258 176.317,171.200 176.503 C 170.650 176.552,160.255 176.641,148.100 176.700 " stroke="none" fill="#cc7b44" fill-rule="evenodd"></path><path id="path2" d="M149.036 23.156 C 148.112 23.518,148.091 23.803,148.039 37.200 L 148.000 47.000 138.377 46.858 C 127.025 46.691,125.309 46.861,124.799 48.203 C 124.601 48.725,124.074 49.346,123.628 49.585 C 123.183 49.823,122.616 50.396,122.369 50.857 C 122.007 51.534,122.025 51.637,122.460 51.390 C 122.895 51.142,122.903 51.187,122.500 51.621 C 122.112 52.040,122.000 57.393,122.000 75.555 L 122.000 98.950 122.897 100.260 C 124.476 102.565,124.688 102.600,136.861 102.600 L 148.000 102.600 148.000 112.094 L 148.000 121.588 136.700 121.706 L 125.400 121.824 136.865 121.812 C 146.631 121.802,148.387 121.889,148.708 122.400 C 149.388 123.481,171.940 123.669,172.631 122.600 C 173.589 121.117,173.532 102.833,172.567 102.122 C 171.942 101.661,169.788 101.575,160.938 101.658 C 152.399 101.738,149.939 101.647,149.438 101.231 C 148.693 100.613,148.455 50.365,149.191 49.200 C 149.732 48.345,172.302 48.306,174.319 49.156 C 176.687 50.155,176.800 50.777,176.800 62.757 L 176.800 73.554 188.035 73.677 L 199.270 73.800 200.235 74.922 L 201.200 76.045 201.200 87.022 L 201.200 98.000 211.931 98.000 C 222.455 98.000,222.710 98.019,225.123 99.000 L 227.584 100.000 250.892 99.994 C 264.852 99.990,274.441 99.836,274.800 99.609 C 275.302 99.292,275.433 97.378,275.600 87.835 C 275.751 79.244,275.928 76.311,276.319 75.919 C 277.045 75.194,296.358 74.932,298.451 75.619 C 300.584 76.320,300.800 77.492,300.800 88.366 C 300.800 101.668,301.732 100.800,287.443 100.800 C 274.592 100.800,276.000 99.285,276.000 113.109 L 276.000 123.955 275.035 125.078 L 274.069 126.200 250.935 126.283 C 238.211 126.329,227.321 126.456,226.735 126.566 L 225.670 126.766 225.527 137.283 C 225.448 143.067,225.447 147.890,225.524 148.000 C 225.602 148.110,231.275 148.333,238.132 148.495 C 244.990 148.658,256.090 148.977,262.800 149.205 C 269.510 149.432,280.400 149.749,287.000 149.909 C 298.527 150.189,300.766 150.449,300.813 151.514 C 300.819 151.671,301.251 152.109,301.771 152.488 L 302.717 153.175 302.292 151.789 C 301.251 148.396,299.729 148.013,287.253 148.006 L 277.107 148.000 277.437 147.100 C 277.618 146.605,277.825 141.835,277.897 136.500 L 278.027 126.800 287.614 126.800 L 297.200 126.800 297.289 136.300 L 297.378 145.800 297.589 136.201 L 297.800 126.603 299.400 126.011 C 300.641 125.551,303.602 125.389,312.587 125.286 C 320.000 125.202,324.358 125.000,324.687 124.728 C 325.351 124.177,325.446 76.808,324.786 75.574 C 324.392 74.838,323.842 74.800,313.686 74.801 C 305.151 74.802,302.457 74.670,300.300 74.147 L 297.600 73.492 297.507 62.646 L 297.414 51.800 297.300 62.500 L 297.187 73.200 286.693 73.240 C 280.922 73.262,275.750 73.405,275.200 73.558 L 274.200 73.837 274.128 85.711 C 274.089 92.242,273.943 97.769,273.804 97.993 C 273.452 98.563,228.546 98.549,226.277 97.978 L 224.600 97.556 224.715 86.878 C 224.861 73.329,226.344 74.800,212.538 74.800 L 201.964 74.800 200.982 73.818 L 200.000 72.836 200.000 62.694 C 200.000 53.813,200.101 52.152,200.815 49.331 C 201.539 46.467,201.617 45.083,201.515 36.854 L 201.400 27.599 202.600 27.564 L 203.800 27.528 202.500 27.152 C 200.964 26.709,200.890 26.499,202.100 26.012 L 203.000 25.651 202.100 25.625 C 201.488 25.608,201.200 25.354,201.200 24.833 C 201.200 22.671,202.835 22.798,175.257 22.828 C 161.256 22.844,149.456 22.991,149.036 23.156 M265.272 49.500 C 271.141 49.562,280.861 49.562,286.872 49.500 C 292.882 49.438,288.080 49.387,276.200 49.386 C 264.320 49.386,259.402 49.437,265.272 49.500 M121.777 136.600 C 121.777 142.980,121.832 145.534,121.899 142.276 C 121.967 139.017,121.966 133.797,121.899 130.676 C 121.831 127.554,121.776 130.220,121.777 136.600 M176.967 126.367 C 176.875 126.458,176.800 131.453,176.800 137.467 L 176.800 148.400 187.767 148.400 C 193.799 148.400,198.974 148.308,199.267 148.196 C 199.842 147.976,199.850 127.284,199.276 126.736 C 198.978 126.451,177.242 126.091,176.967 126.367 M97.848 148.610 C 97.118 149.339,97.000 150.000,97.600 150.000 C 97.820 150.000,98.000 149.745,98.000 149.433 C 98.000 149.122,98.225 148.786,98.500 148.688 C 98.775 148.590,98.886 148.386,98.748 148.236 C 98.609 148.085,98.204 148.253,97.848 148.610 M76.100 172.276 C 76.485 172.376,77.115 172.376,77.500 172.276 C 77.885 172.175,77.570 172.093,76.800 172.093 C 76.030 172.093,75.715 172.175,76.100 172.276 M301.600 172.819 C 298.772 175.085,298.051 175.200,286.651 175.200 L 276.058 175.200 275.229 176.254 C 274.436 177.262,274.400 177.786,274.400 188.221 C 274.400 194.224,274.291 199.419,274.157 199.767 C 273.944 200.323,272.584 200.400,263.006 200.400 C 253.353 200.400,252.035 200.476,251.549 201.061 C 250.668 202.121,250.517 222.109,251.380 223.426 L 252.010 224.387 263.100 224.494 L 274.190 224.600 274.795 225.800 C 275.283 226.767,275.407 228.901,275.436 236.800 C 275.490 251.267,274.359 250.130,288.521 249.954 L 297.703 249.839 298.651 250.942 C 299.599 252.044,299.600 252.055,299.618 263.122 C 299.631 271.726,299.764 274.557,300.212 275.800 C 301.044 278.110,301.059 297.139,300.230 298.742 C 299.241 300.654,298.352 300.800,287.681 300.802 C 278.966 300.804,277.664 300.887,276.644 301.507 L 275.487 302.209 275.444 313.062 C 275.404 322.942,275.335 323.988,274.675 324.717 C 273.897 325.577,267.387 325.840,237.446 326.219 C 231.532 326.294,226.450 326.449,226.153 326.563 C 225.722 326.728,225.592 328.936,225.507 337.485 L 225.400 348.200 224.000 348.905 C 221.840 349.993,151.959 349.790,150.282 348.691 L 149.200 347.982 149.200 337.378 C 149.200 329.108,149.087 326.731,148.686 326.578 C 148.403 326.469,143.228 326.340,137.186 326.290 C 127.588 326.211,126.038 326.112,124.920 325.500 C 123.790 324.882,122.371 324.800,112.839 324.800 C 98.050 324.800,99.068 325.794,99.246 311.530 C 99.396 299.495,100.605 300.647,87.925 300.751 C 77.261 300.837,75.957 300.601,74.938 298.400 C 74.615 297.703,74.393 290.560,74.207 274.800 C 74.060 262.370,73.853 251.890,73.746 251.511 C 73.570 250.883,72.495 250.811,61.477 250.690 C 54.834 250.618,49.040 250.446,48.600 250.310 C 48.160 250.173,47.666 250.047,47.503 250.031 C 47.340 250.014,47.158 239.155,47.100 225.900 C 47.041 212.645,46.951 222.860,46.899 248.600 C 46.847 274.340,46.918 296.856,47.057 298.635 L 47.309 301.870 48.654 301.780 C 49.394 301.730,50.000 301.805,50.000 301.945 C 49.999 302.085,54.004 302.143,58.900 302.074 C 63.795 302.004,69.105 302.064,70.700 302.208 L 73.600 302.468 73.600 314.211 C 73.600 322.945,73.724 326.029,74.082 326.251 C 74.779 326.681,75.598 326.697,99.657 326.751 C 120.055 326.797,121.536 326.847,121.842 327.500 C 122.294 328.468,122.685 348.401,122.251 348.401 C 122.059 348.400,122.089 348.625,122.317 348.900 C 122.730 349.398,122.800 349.618,122.800 350.424 C 122.800 350.657,122.978 350.737,123.195 350.603 C 123.422 350.463,123.489 350.623,123.353 350.979 C 123.198 351.382,123.341 351.600,123.757 351.600 C 124.111 351.600,124.414 351.915,124.432 352.300 C 124.450 352.713,124.545 352.796,124.664 352.503 C 124.808 352.146,125.076 352.120,125.615 352.408 C 126.109 352.672,147.010 352.808,186.603 352.803 L 246.839 352.795 248.914 351.398 L 250.989 350.000 274.833 350.000 C 297.424 350.000,298.711 349.962,299.338 349.269 C 299.920 348.626,300.000 347.222,300.000 337.696 L 300.000 326.854 301.162 326.027 C 302.268 325.239,302.844 325.200,313.282 325.200 C 321.271 325.200,324.370 325.070,324.720 324.720 C 325.360 324.080,325.414 277.133,324.777 275.305 C 324.205 273.666,323.715 273.600,312.150 273.600 L 302.400 273.600 302.349 262.900 C 302.189 229.097,302.138 227.627,301.022 224.908 C 300.012 222.446,300.000 222.285,300.000 211.577 L 300.000 200.738 298.829 199.567 C 298.185 198.923,297.600 198.141,297.529 197.829 C 297.423 197.364,297.119 197.400,295.829 198.031 C 294.465 198.698,279.133 199.298,278.733 198.700 C 278.696 198.645,278.553 194.100,278.414 188.600 C 278.275 183.100,278.016 178.285,277.838 177.900 C 277.535 177.243,278.129 177.200,287.411 177.200 C 297.816 177.200,299.769 176.950,301.130 175.441 C 301.736 174.769,302.998 171.973,302.679 172.009 C 302.636 172.014,302.150 172.378,301.600 172.819 M73.043 176.633 C 72.909 176.981,72.800 181.551,72.800 186.790 C 72.800 194.842,72.708 196.350,72.206 196.542 C 71.880 196.668,66.989 196.771,61.338 196.771 C 53.966 196.772,50.983 196.904,50.777 197.238 C 50.619 197.493,50.328 197.603,50.130 197.481 C 49.933 197.359,49.771 197.606,49.771 198.029 C 49.771 198.872,50.200 199.047,50.617 198.373 C 50.762 198.138,51.133 198.042,51.440 198.160 C 51.763 198.284,52.000 198.126,52.000 197.787 C 52.000 197.288,53.426 197.196,61.500 197.170 C 69.901 197.144,72.708 197.026,73.050 196.683 C 73.152 196.581,73.444 175.999,73.343 176.000 C 73.311 176.000,73.176 176.285,73.043 176.633 M297.365 186.800 C 297.365 190.650,297.425 192.225,297.498 190.300 C 297.571 188.375,297.571 185.225,297.498 183.300 C 297.425 181.375,297.365 182.950,297.365 186.800 M49.370 313.000 C 49.371 317.840,49.429 319.765,49.499 317.278 C 49.569 314.791,49.569 310.831,49.498 308.478 C 49.428 306.125,49.370 308.160,49.370 313.000 M78.705 351.883 C 79.202 351.979,79.922 351.975,80.305 351.875 C 80.687 351.775,80.280 351.696,79.400 351.701 C 78.520 351.705,78.207 351.787,78.705 351.883 " stroke="none" fill="#5b2913" fill-rule="evenodd"></path><path id="path3" d="M151.881 51.318 L 150.762 51.800 150.755 74.786 C 150.748 96.253,150.794 97.807,151.450 98.286 C 151.978 98.672,154.629 98.800,162.085 98.800 L 172.017 98.800 173.548 99.813 C 175.950 101.402,175.981 101.565,176.095 113.267 C 176.153 119.134,176.305 124.040,176.434 124.168 C 176.562 124.296,181.692 124.446,187.834 124.500 C 197.592 124.587,199.161 124.688,200.280 125.300 C 201.410 125.918,202.831 126.000,212.400 126.000 C 221.969 126.000,223.390 125.918,224.520 125.300 C 225.686 124.662,227.927 124.582,249.793 124.400 L 273.787 124.200 274.070 122.600 C 274.581 119.721,274.455 102.615,273.920 102.080 C 273.558 101.718,267.814 101.600,250.524 101.600 C 228.579 101.600,227.519 101.566,225.504 100.800 C 223.591 100.073,222.422 100.000,212.600 99.994 C 206.660 99.991,201.602 99.856,201.360 99.694 C 200.149 98.885,200.000 97.481,200.000 86.888 C 200.000 73.270,201.600 74.800,187.358 74.800 C 172.778 74.800,174.400 76.304,174.400 62.788 L 174.400 52.021 173.220 51.410 C 171.690 50.619,153.684 50.541,151.881 51.318 M199.076 76.100 C 199.254 76.375,199.448 81.640,199.506 87.800 C 199.564 93.960,199.703 99.405,199.814 99.900 L 200.015 100.800 211.386 100.800 C 222.756 100.800,222.758 100.800,224.644 101.803 L 226.530 102.806 226.461 112.261 C 226.389 122.274,226.100 123.815,224.159 124.560 C 222.580 125.166,200.871 124.814,200.229 124.171 C 199.883 123.826,199.565 123.511,199.523 123.471 C 199.480 123.432,199.345 118.540,199.223 112.600 L 199.000 101.800 188.129 101.600 L 177.257 101.400 176.051 99.734 C 175.387 98.818,174.519 97.965,174.122 97.839 C 173.514 97.647,173.342 77.594,173.939 76.487 C 174.462 75.518,198.461 75.149,199.076 76.100 M206.100 149.099 C 208.905 149.168,213.495 149.168,216.300 149.099 C 219.105 149.030,216.810 148.974,211.200 148.974 C 205.590 148.974,203.295 149.030,206.100 149.099 M173.200 173.600 C 172.831 173.839,163.883 173.990,149.950 173.994 C 129.596 173.999,127.123 174.069,125.550 174.680 C 124.085 175.249,122.019 175.378,112.845 175.470 C 103.578 175.563,101.739 175.679,100.908 176.223 L 99.926 176.867 100.005 186.733 C 100.108 199.472,100.181 198.590,98.964 199.387 C 98.060 199.979,96.533 200.075,87.025 200.133 C 78.528 200.185,75.979 200.319,75.471 200.741 C 74.489 201.556,75.134 273.269,76.133 274.268 C 76.315 274.450,81.297 274.690,87.202 274.800 C 97.610 274.994,97.970 275.027,98.969 275.897 C 100.171 276.943,100.094 276.052,100.009 288.000 L 99.941 297.400 101.271 298.681 L 102.600 299.962 113.136 300.081 C 126.573 300.233,125.199 298.905,125.202 311.744 C 125.203 317.055,125.386 322.053,125.607 322.851 L 126.010 324.301 139.505 324.608 C 175.109 325.416,248.316 324.827,249.420 323.723 C 249.897 323.246,250.000 321.313,250.001 312.871 C 250.003 303.337,250.060 302.507,250.796 301.300 L 251.588 300.000 262.508 300.000 L 273.428 300.000 274.114 298.838 C 275.180 297.034,275.167 252.052,274.100 251.098 C 273.489 250.553,270.500 250.444,250.600 250.245 C 238.060 250.119,227.578 250.012,227.306 250.008 C 227.034 250.004,226.342 249.291,225.768 248.423 L 224.725 246.847 224.862 235.667 L 225.000 224.487 223.900 225.271 C 223.295 225.702,222.800 226.177,222.800 226.327 C 222.800 226.477,212.586 226.551,200.102 226.490 C 179.044 226.388,177.367 226.430,176.902 227.067 C 176.273 227.926,176.188 246.072,176.804 247.840 L 177.208 249.000 199.807 248.887 C 214.027 248.816,222.591 248.919,222.903 249.164 C 223.176 249.378,224.077 250.149,224.903 250.876 L 226.407 252.200 226.416 275.095 C 226.426 299.929,226.464 299.480,224.235 300.941 C 223.314 301.544,219.127 301.600,174.998 301.600 L 126.767 301.600 125.506 299.572 L 124.246 297.544 124.223 287.435 C 124.205 279.482,124.083 277.185,123.651 276.663 C 123.166 276.077,121.913 276.000,112.886 276.000 L 102.670 276.000 100.735 274.758 L 98.800 273.517 98.800 237.432 L 98.800 201.347 100.500 200.374 C 102.156 199.425,102.478 199.395,112.867 199.200 C 118.734 199.090,123.684 198.850,123.867 198.667 C 124.050 198.483,124.219 193.533,124.242 187.667 L 124.284 177.000 125.442 176.332 C 126.481 175.733,129.044 175.651,150.299 175.532 L 173.997 175.400 173.999 174.300 C 174.000 173.059,174.016 173.073,173.200 173.600 M174.800 187.138 C 174.800 201.846,173.178 200.200,187.675 200.200 C 200.014 200.200,200.071 200.188,199.953 197.624 C 199.909 196.669,199.888 196.681,199.649 197.800 C 199.308 199.396,198.297 199.533,186.523 199.570 C 177.373 199.600,177.237 199.588,176.623 198.711 C 175.879 197.650,175.672 177.050,176.400 176.600 C 177.137 176.145,176.810 175.600,175.800 175.600 L 174.800 175.600 174.800 187.138 " stroke="none" fill="#a3542b" fill-rule="evenodd"></path><path id="path4" d="M150.400 48.699 C 149.850 48.799,149.268 49.088,149.106 49.340 C 148.434 50.392,148.755 100.665,149.438 101.231 C 149.939 101.647,152.399 101.738,160.938 101.658 C 169.788 101.575,171.942 101.661,172.567 102.122 C 173.532 102.833,173.589 121.117,172.631 122.600 C 171.847 123.813,149.472 123.463,148.567 122.224 C 147.947 121.375,147.820 121.889,148.252 123.500 L 148.493 124.400 161.623 124.400 C 170.083 124.400,174.842 124.255,175.004 123.994 C 175.142 123.770,175.271 118.786,175.290 112.918 L 175.324 102.249 173.977 101.125 L 172.630 100.000 162.702 100.000 C 154.938 100.000,152.472 99.874,151.387 99.420 L 150.000 98.841 150.006 75.320 C 150.010 61.216,150.164 51.560,150.391 51.200 C 151.311 49.742,174.748 50.237,174.825 51.716 C 174.839 51.982,174.884 56.916,174.925 62.680 C 174.982 70.656,175.124 73.284,175.519 73.680 C 175.912 74.073,178.863 74.249,187.600 74.400 C 195.398 74.535,199.308 74.747,199.612 75.051 C 200.529 75.970,200.781 78.840,200.790 88.476 C 200.798 95.930,200.923 98.432,201.300 98.676 C 201.575 98.854,206.570 99.051,212.400 99.114 C 221.948 99.216,223.203 99.308,225.047 100.038 C 227.011 100.817,228.022 100.853,250.285 100.925 C 269.271 100.986,273.597 101.100,274.139 101.549 C 275.061 102.315,275.146 122.973,274.232 124.224 C 273.683 124.975,272.920 125.003,250.452 125.079 C 230.792 125.145,226.919 125.253,225.147 125.779 C 222.214 126.650,201.728 126.693,200.062 125.832 C 198.145 124.841,177.269 124.817,176.546 125.806 C 175.642 127.042,175.759 147.702,176.675 148.618 C 177.292 149.235,178.358 149.268,188.975 148.996 C 215.702 148.313,249.064 148.845,251.041 149.986 C 252.175 150.642,254.191 150.727,274.641 150.988 L 297.000 151.273 299.707 152.314 L 302.414 153.355 302.307 162.751 L 302.200 172.148 300.200 172.743 C 298.726 173.182,295.133 173.399,286.533 173.569 C 274.919 173.799,274.862 173.804,274.052 174.740 L 273.237 175.679 262.749 175.540 L 252.261 175.400 251.231 176.431 L 250.200 177.462 250.104 188.231 C 249.762 226.658,250.148 246.751,251.262 248.447 L 251.924 249.456 259.721 249.277 C 270.246 249.036,273.283 249.336,274.615 250.747 L 275.634 251.826 275.634 274.749 L 275.634 297.672 274.600 299.436 L 273.566 301.200 262.832 301.200 C 254.682 301.200,251.997 301.321,251.679 301.704 C 251.418 302.019,251.211 306.234,251.130 312.891 C 250.964 326.540,252.714 324.974,237.486 325.101 C 230.777 325.156,224.884 325.379,224.240 325.601 C 222.625 326.157,152.686 326.145,150.797 325.588 C 149.993 325.351,144.987 325.179,139.000 325.183 C 128.898 325.190,125.986 324.945,125.051 324.012 C 124.750 323.711,124.534 320.034,124.400 312.920 L 124.200 302.279 122.600 301.721 C 121.383 301.297,118.768 301.181,111.669 301.234 L 102.337 301.305 100.569 299.569 L 98.800 297.833 98.800 288.104 C 98.800 280.513,98.673 278.069,98.220 276.987 L 97.641 275.600 87.201 275.600 L 76.762 275.600 75.773 274.533 L 74.784 273.466 74.793 261.833 C 74.798 255.435,74.626 249.480,74.410 248.600 C 73.655 245.510,73.886 200.593,74.661 199.949 C 75.179 199.519,77.750 199.376,86.561 199.288 C 96.488 199.190,97.858 199.099,98.300 198.512 C 98.672 198.017,98.800 195.007,98.800 186.751 L 98.800 175.654 99.962 174.827 C 101.066 174.041,101.648 174.000,111.742 174.000 C 119.891 174.000,122.897 173.860,124.665 173.400 C 126.439 172.938,129.468 172.800,137.851 172.800 C 143.837 172.800,148.974 172.708,149.267 172.596 C 150.145 172.259,149.880 153.972,148.964 151.700 L 148.279 150.000 137.193 150.000 C 126.551 150.000,126.065 149.967,125.044 149.163 C 124.459 148.703,123.670 148.281,123.290 148.225 C 122.517 148.112,122.005 127.915,122.739 126.486 C 123.126 125.733,122.932 124.800,122.388 124.800 C 122.198 124.800,122.029 129.964,122.012 136.276 C 121.995 142.588,121.930 147.803,121.868 147.866 C 121.805 147.928,116.946 147.995,111.070 148.013 C 95.970 148.060,97.249 146.804,97.336 161.503 L 97.400 172.200 87.600 172.200 C 75.632 172.200,74.488 172.298,73.887 173.380 C 73.588 173.918,73.376 178.092,73.270 185.535 C 73.116 196.403,73.079 196.862,72.355 196.672 C 71.940 196.564,71.500 196.638,71.377 196.838 C 71.253 197.038,66.868 197.200,61.576 197.200 C 53.170 197.200,52.000 197.276,52.000 197.824 C 52.000 198.167,51.812 198.331,51.582 198.189 C 51.353 198.047,50.948 198.110,50.682 198.328 C 50.417 198.546,49.598 198.819,48.862 198.933 C 48.127 199.048,47.444 199.223,47.345 199.321 C 47.138 199.529,47.146 249.680,47.354 249.887 C 47.887 250.420,50.858 250.591,61.477 250.699 C 72.499 250.812,73.570 250.883,73.746 251.511 C 73.853 251.890,74.060 262.370,74.207 274.800 C 74.393 290.560,74.615 297.703,74.938 298.400 C 75.957 300.601,77.261 300.837,87.925 300.751 C 100.605 300.647,99.396 299.495,99.246 311.530 C 99.068 325.794,98.050 324.800,112.839 324.800 C 122.371 324.800,123.790 324.882,124.920 325.500 C 126.038 326.112,127.588 326.211,137.186 326.290 C 143.228 326.340,148.403 326.469,148.686 326.578 C 149.087 326.731,149.200 329.108,149.200 337.378 L 149.200 347.982 150.282 348.691 C 151.959 349.790,221.840 349.993,224.000 348.905 L 225.400 348.200 225.507 337.485 C 225.592 328.936,225.722 326.728,226.153 326.563 C 226.450 326.449,231.532 326.294,237.446 326.219 C 267.387 325.840,273.897 325.577,274.675 324.717 C 275.335 323.988,275.404 322.942,275.444 313.062 L 275.487 302.209 276.644 301.507 C 277.664 300.887,278.966 300.804,287.681 300.802 C 298.352 300.800,299.241 300.654,300.230 298.742 C 301.059 297.139,301.044 278.110,300.212 275.800 C 299.764 274.557,299.631 271.726,299.618 263.122 C 299.600 252.055,299.599 252.044,298.651 250.942 L 297.703 249.839 288.521 249.954 C 274.359 250.130,275.490 251.267,275.436 236.800 C 275.407 228.901,275.283 226.767,274.795 225.800 L 274.190 224.600 263.100 224.494 L 252.010 224.387 251.380 223.426 C 250.517 222.109,250.668 202.121,251.549 201.061 C 252.035 200.476,253.353 200.400,263.006 200.400 C 272.584 200.400,273.944 200.323,274.157 199.767 C 274.291 199.419,274.400 194.224,274.400 188.221 C 274.400 177.786,274.436 177.262,275.229 176.254 L 276.058 175.200 286.669 175.200 C 298.124 175.200,298.457 175.148,301.500 172.876 L 302.800 171.905 302.800 162.641 L 302.800 153.376 301.500 152.163 C 300.785 151.497,299.930 150.782,299.600 150.575 C 299.270 150.369,293.600 150.069,287.000 149.909 C 280.400 149.749,269.510 149.432,262.800 149.205 C 256.090 148.977,244.990 148.658,238.132 148.495 C 231.275 148.333,225.602 148.110,225.524 148.000 C 225.447 147.890,225.448 143.067,225.527 137.283 L 225.670 126.766 226.735 126.566 C 227.321 126.456,238.211 126.329,250.935 126.283 L 274.069 126.200 275.035 125.078 L 276.000 123.955 276.000 113.040 C 276.000 99.293,274.582 100.800,287.513 100.800 C 301.721 100.800,300.800 101.662,300.800 88.366 C 300.800 77.492,300.584 76.320,298.451 75.619 C 296.358 74.932,277.045 75.194,276.319 75.919 C 275.928 76.311,275.751 79.244,275.600 87.835 C 275.433 97.378,275.302 99.292,274.800 99.609 C 274.441 99.836,264.852 99.990,250.892 99.994 L 227.584 100.000 225.123 99.000 C 222.710 98.019,222.455 98.000,211.931 98.000 L 201.200 98.000 201.200 87.022 L 201.200 76.045 200.235 74.922 L 199.270 73.800 188.035 73.677 L 176.800 73.554 176.800 62.796 C 176.800 51.081,176.691 50.404,174.622 49.270 C 173.432 48.618,153.442 48.146,150.400 48.699 M124.800 122.389 C 124.800 122.936,125.736 123.125,126.499 122.733 C 126.883 122.535,131.681 122.424,137.161 122.487 C 142.641 122.549,147.038 122.461,146.933 122.291 C 146.669 121.864,124.800 121.961,124.800 122.389 M123.186 123.417 C 122.824 123.853,122.799 124.159,123.100 124.460 C 123.401 124.761,123.507 124.668,123.463 124.143 C 123.422 123.662,123.646 123.419,124.096 123.455 C 124.478 123.485,124.693 123.350,124.572 123.155 C 124.248 122.630,123.763 122.722,123.186 123.417 M199.276 126.736 C 199.850 127.284,199.842 147.976,199.267 148.196 C 198.974 148.308,193.799 148.400,187.767 148.400 L 176.800 148.400 176.800 137.467 C 176.800 131.453,176.875 126.458,176.967 126.367 C 177.242 126.091,198.978 126.451,199.276 126.736 M176.800 187.800 L 176.800 198.800 187.229 198.800 C 195.733 198.800,197.763 198.695,198.229 198.229 C 199.128 197.330,199.070 177.389,198.167 177.043 C 197.819 176.909,192.869 176.800,187.167 176.800 L 176.800 176.800 176.800 187.800 " stroke="none" fill="#7c3c34" fill-rule="evenodd"></path><path id="path5" d="M151.600 50.695 C 149.996 50.993,150.013 50.741,150.006 75.320 L 150.000 98.841 151.387 99.420 C 152.472 99.874,154.938 100.000,162.702 100.000 L 172.630 100.000 173.977 101.125 L 175.324 102.249 175.290 112.918 C 175.271 118.786,175.142 123.770,175.004 123.994 C 174.842 124.255,170.078 124.400,161.608 124.400 L 148.464 124.400 148.200 123.200 C 148.052 122.526,147.677 122.000,147.345 122.000 C 147.019 122.000,146.837 122.135,146.939 122.300 C 147.041 122.465,142.479 122.510,136.800 122.400 C 131.121 122.290,126.559 122.335,126.661 122.500 C 126.861 122.822,126.255 122.940,125.056 122.814 C 124.647 122.770,124.394 122.885,124.493 123.067 C 124.733 123.510,123.343 124.808,122.994 124.467 C 122.844 124.320,122.760 124.560,122.807 125.000 C 122.940 126.251,122.827 126.864,122.500 126.661 C 122.335 126.559,122.290 131.346,122.400 137.300 C 122.582 147.154,122.662 148.134,123.290 148.225 C 123.670 148.281,124.459 148.703,125.044 149.163 C 126.065 149.967,126.551 150.000,137.193 150.000 L 148.279 150.000 148.964 151.700 C 149.880 153.972,150.145 172.259,149.267 172.596 C 148.974 172.708,143.837 172.800,137.851 172.800 C 129.468 172.800,126.439 172.938,124.665 173.400 C 122.897 173.860,119.891 174.000,111.742 174.000 C 101.648 174.000,101.066 174.041,99.962 174.827 L 98.800 175.654 98.800 186.751 C 98.800 195.007,98.672 198.017,98.300 198.512 C 97.858 199.099,96.488 199.190,86.561 199.288 C 77.750 199.376,75.179 199.519,74.661 199.949 C 73.886 200.593,73.655 245.510,74.410 248.600 C 74.626 249.480,74.798 255.435,74.793 261.833 L 74.784 273.466 75.773 274.533 L 76.762 275.600 87.201 275.600 L 97.641 275.600 98.220 276.987 C 98.673 278.069,98.800 280.513,98.800 288.104 L 98.800 297.833 100.569 299.569 L 102.337 301.305 111.669 301.234 C 118.768 301.181,121.383 301.297,122.600 301.721 L 124.200 302.279 124.400 312.920 C 124.534 320.034,124.750 323.711,125.051 324.012 C 125.986 324.945,128.898 325.190,139.000 325.183 C 144.987 325.179,149.993 325.351,150.797 325.588 C 152.686 326.145,222.625 326.157,224.240 325.601 C 224.884 325.379,230.777 325.156,237.486 325.101 C 252.714 324.974,250.964 326.540,251.130 312.891 C 251.211 306.234,251.418 302.019,251.679 301.704 C 251.997 301.321,254.682 301.200,262.832 301.200 L 273.566 301.200 274.600 299.436 L 275.634 297.672 275.634 274.749 L 275.634 251.826 274.615 250.747 C 273.283 249.336,270.246 249.036,259.721 249.277 L 251.924 249.456 251.262 248.447 C 250.148 246.751,249.762 226.658,250.104 188.231 L 250.200 177.462 251.231 176.431 L 252.261 175.400 262.749 175.540 L 273.237 175.679 274.052 174.740 C 274.862 173.804,274.919 173.799,286.533 173.569 C 295.133 173.399,298.726 173.182,300.200 172.743 L 302.200 172.148 302.307 162.751 L 302.414 153.355 299.707 152.314 L 297.000 151.273 274.641 150.988 C 254.191 150.727,252.175 150.642,251.041 149.986 C 249.064 148.845,215.702 148.313,188.975 148.996 C 178.358 149.268,177.292 149.235,176.675 148.618 C 175.671 147.614,175.652 127.075,176.653 125.645 C 177.200 124.865,177.216 124.657,176.753 124.372 C 176.309 124.097,176.179 121.920,176.095 113.315 C 175.981 101.561,175.951 101.403,173.548 99.813 L 172.017 98.800 162.085 98.800 C 154.629 98.800,151.978 98.672,151.450 98.286 C 150.794 97.807,150.748 96.253,150.755 74.786 L 150.762 51.800 151.881 51.318 C 153.684 50.541,171.690 50.619,173.220 51.410 L 174.400 52.021 174.400 62.788 C 174.400 76.306,172.766 74.800,187.427 74.800 C 201.592 74.800,200.000 73.261,200.000 86.958 C 200.000 97.480,200.150 98.886,201.360 99.694 C 201.602 99.856,206.660 99.991,212.600 99.994 C 222.422 100.000,223.591 100.073,225.504 100.800 C 227.519 101.566,228.579 101.600,250.524 101.600 C 267.814 101.600,273.558 101.718,273.920 102.080 C 274.455 102.615,274.581 119.721,274.070 122.600 L 273.787 124.200 249.793 124.400 C 227.927 124.582,225.686 124.662,224.520 125.300 C 222.602 126.349,202.221 126.357,200.280 125.309 C 199.175 124.713,197.551 124.605,188.400 124.516 C 181.778 124.452,178.100 124.551,178.600 124.779 C 179.040 124.980,183.810 125.163,189.200 125.186 C 196.902 125.219,199.214 125.351,200.000 125.800 C 201.520 126.669,222.207 126.652,225.147 125.779 C 226.919 125.253,230.792 125.145,250.452 125.079 C 272.920 125.003,273.683 124.975,274.232 124.224 C 275.146 122.973,275.061 102.315,274.139 101.549 C 273.597 101.100,269.271 100.986,250.285 100.925 C 228.022 100.853,227.011 100.817,225.047 100.038 C 223.203 99.308,221.948 99.216,212.400 99.114 C 206.570 99.051,201.575 98.854,201.300 98.676 C 200.923 98.432,200.798 95.930,200.790 88.476 C 200.781 78.840,200.529 75.970,199.612 75.051 C 199.308 74.747,195.398 74.535,187.600 74.400 C 178.863 74.249,175.912 74.073,175.519 73.680 C 175.124 73.284,174.982 70.656,174.925 62.680 C 174.884 56.916,174.839 51.993,174.825 51.739 C 174.761 50.577,156.624 49.761,151.600 50.695 M173.900 125.791 L 174.800 126.015 174.800 136.982 C 174.800 143.139,174.971 148.398,175.190 148.974 L 175.580 150.000 187.490 149.986 C 197.061 149.974,199.596 149.859,200.400 149.400 C 201.739 148.634,222.132 148.534,223.874 149.285 C 224.633 149.612,228.959 149.840,237.136 149.985 L 249.272 150.200 250.036 151.144 C 251.061 152.411,251.217 172.433,250.217 174.366 C 249.420 175.908,248.693 176.000,237.336 176.000 C 228.953 176.000,227.430 176.093,226.569 176.657 L 225.566 177.314 225.572 200.157 C 225.576 212.721,225.416 223.990,225.218 225.200 C 225.020 226.410,224.845 231.813,224.829 237.207 L 224.800 247.014 225.814 248.507 C 226.372 249.328,227.047 250.004,227.314 250.008 C 227.581 250.012,238.060 250.119,250.600 250.245 C 270.500 250.444,273.489 250.553,274.100 251.098 C 275.167 252.052,275.180 297.034,274.114 298.838 L 273.428 300.000 262.508 300.000 L 251.588 300.000 250.796 301.300 C 250.060 302.507,250.003 303.337,250.001 312.871 C 250.000 321.313,249.897 323.246,249.420 323.723 C 248.316 324.827,175.109 325.416,139.505 324.608 L 126.010 324.301 125.607 322.851 C 125.386 322.053,125.203 317.055,125.202 311.744 C 125.199 298.905,126.573 300.233,113.136 300.081 L 102.600 299.962 101.271 298.681 L 99.941 297.400 100.009 288.000 C 100.094 276.052,100.171 276.943,98.969 275.897 C 97.970 275.027,97.610 274.994,87.202 274.800 C 81.297 274.690,76.315 274.450,76.133 274.268 C 75.134 273.269,74.489 201.556,75.471 200.741 C 75.979 200.319,78.528 200.185,87.025 200.133 C 96.533 200.075,98.060 199.979,98.964 199.387 C 100.181 198.590,100.108 199.472,100.005 186.733 L 99.926 176.867 100.908 176.223 C 101.739 175.679,103.578 175.563,112.845 175.470 C 122.019 175.378,124.085 175.249,125.550 174.680 C 127.124 174.069,129.590 174.000,150.006 174.000 C 171.034 174.000,172.775 173.948,173.575 173.300 C 174.633 172.443,174.729 152.168,173.681 151.119 C 173.290 150.728,170.392 150.551,161.958 150.400 L 150.753 150.200 149.985 149.200 C 149.022 147.945,148.763 126.861,149.702 126.082 C 150.537 125.389,171.287 125.139,173.900 125.791 M176.500 176.375 C 175.666 177.732,175.798 197.534,176.649 198.749 L 177.298 199.676 188.029 199.538 C 196.144 199.434,198.887 199.273,199.280 198.881 C 200.334 197.828,200.250 177.550,199.187 176.588 C 197.804 175.335,177.257 175.142,176.500 176.375 M198.167 177.043 C 199.070 177.389,199.128 197.330,198.229 198.229 C 197.763 198.695,195.733 198.800,187.229 198.800 L 176.800 198.800 176.800 187.800 L 176.800 176.800 187.167 176.800 C 192.869 176.800,197.819 176.909,198.167 177.043 " stroke="none" fill="#845434" fill-rule="evenodd"></path><path id="path6" d="M200.957 23.433 C 201.091 23.781,201.200 24.411,201.200 24.833 C 201.200 25.354,201.488 25.608,202.100 25.625 L 203.000 25.651 202.100 26.012 C 200.890 26.499,200.964 26.709,202.500 27.152 L 203.800 27.528 202.600 27.564 L 201.400 27.599 201.515 36.854 C 201.617 45.083,201.539 46.467,200.815 49.331 C 200.101 52.152,200.000 53.813,200.000 62.694 L 200.000 72.836 200.982 73.818 L 201.964 74.800 212.538 74.800 C 226.344 74.800,224.861 73.329,224.715 86.878 L 224.600 97.556 226.277 97.978 C 228.546 98.549,273.452 98.563,273.804 97.993 C 273.943 97.769,274.089 92.242,274.128 85.711 L 274.200 73.837 275.200 73.558 C 275.750 73.405,280.922 73.262,286.693 73.240 L 297.187 73.200 297.300 62.500 L 297.414 51.800 297.507 62.646 L 297.600 73.492 300.300 74.147 C 302.457 74.670,305.151 74.802,313.686 74.801 C 323.842 74.800,324.392 74.838,324.786 75.574 C 325.446 76.808,325.351 124.177,324.687 124.728 C 324.358 125.000,320.000 125.202,312.587 125.286 C 303.602 125.389,300.641 125.551,299.400 126.011 L 297.800 126.603 297.589 136.201 L 297.378 145.800 297.289 136.300 L 297.200 126.800 287.614 126.800 L 278.027 126.800 277.897 136.500 C 277.825 141.835,277.618 146.605,277.437 147.100 L 277.107 148.000 287.253 148.006 C 299.711 148.013,301.100 148.357,302.236 151.713 L 302.671 153.000 314.464 153.106 L 326.256 153.212 327.521 151.450 L 328.786 149.688 328.893 139.344 L 329.000 129.000 339.344 128.893 L 349.688 128.786 351.444 127.525 L 353.200 126.264 353.200 100.000 L 353.200 73.736 351.444 72.475 L 349.688 71.214 339.344 71.107 L 329.000 71.000 328.893 60.656 L 328.786 50.312 327.525 48.556 L 326.264 46.800 289.132 46.800 L 252.000 46.800 252.000 34.800 L 252.000 22.800 226.357 22.800 C 203.139 22.800,200.737 22.860,200.957 23.433 M121.949 47.461 C 121.386 48.139,121.077 101.610,121.632 102.166 C 121.760 102.294,123.020 102.482,124.432 102.586 C 125.845 102.689,126.550 102.644,126.000 102.486 C 124.613 102.089,123.914 101.586,122.886 100.246 L 122.000 99.092 122.000 75.626 C 122.000 57.407,122.112 52.040,122.500 51.621 C 122.903 51.187,122.895 51.142,122.460 51.390 C 122.025 51.637,122.007 51.534,122.369 50.857 C 122.616 50.396,123.183 49.823,123.628 49.585 C 124.074 49.346,124.600 48.726,124.798 48.206 C 124.995 47.687,125.572 47.182,126.078 47.085 C 126.585 46.988,125.987 46.884,124.749 46.854 C 123.094 46.814,122.353 46.975,121.949 47.461 M146.100 47.076 C 146.485 47.176,147.115 47.176,147.500 47.076 C 147.885 46.975,147.570 46.893,146.800 46.893 C 146.030 46.893,145.715 46.975,146.100 47.076 M286.872 49.500 C 280.861 49.562,271.141 49.562,265.272 49.500 C 259.402 49.437,264.320 49.386,276.200 49.386 C 288.080 49.387,292.882 49.438,286.872 49.500 M124.623 121.562 C 124.500 121.762,124.066 121.838,123.659 121.731 C 123.252 121.625,122.608 121.849,122.229 122.229 C 121.849 122.608,121.625 123.252,121.731 123.659 C 121.838 124.066,121.762 124.500,121.562 124.623 C 121.363 124.746,121.207 125.242,121.216 125.724 C 121.229 126.447,121.327 126.379,121.782 125.333 C 122.483 123.722,123.722 122.483,125.333 121.782 C 126.379 121.327,126.447 121.229,125.724 121.216 C 125.242 121.207,124.746 121.363,124.623 121.562 M73.612 172.384 C 73.288 172.589,73.163 172.896,73.333 173.067 C 73.504 173.237,73.769 173.178,73.922 172.935 C 74.075 172.692,74.560 172.403,75.000 172.293 L 75.800 172.093 75.000 172.053 C 74.560 172.030,73.935 172.180,73.612 172.384 M302.390 173.026 C 302.176 173.590,302.000 174.189,302.000 174.356 C 302.000 176.523,298.548 177.200,287.498 177.200 C 278.133 177.200,277.534 177.243,277.838 177.900 C 278.016 178.285,278.275 183.100,278.414 188.600 C 278.553 194.100,278.696 198.645,278.733 198.700 C 279.133 199.298,294.465 198.698,295.829 198.031 C 297.119 197.400,297.423 197.364,297.529 197.829 C 297.600 198.141,298.185 198.923,298.829 199.567 L 300.000 200.738 300.000 211.577 C 300.000 222.285,300.012 222.446,301.022 224.908 C 302.138 227.627,302.189 229.097,302.349 262.900 L 302.400 273.600 312.150 273.600 C 323.715 273.600,324.205 273.666,324.777 275.305 C 325.414 277.133,325.360 324.080,324.720 324.720 C 324.370 325.070,321.271 325.200,313.282 325.200 C 302.844 325.200,302.268 325.239,301.162 326.027 L 300.000 326.854 300.000 337.765 C 300.000 347.827,299.943 348.727,299.269 349.338 C 298.605 349.938,296.324 350.000,274.763 350.000 L 250.989 350.000 248.914 351.398 L 246.839 352.795 186.603 352.803 C 147.010 352.808,126.109 352.672,125.615 352.408 C 125.076 352.120,124.808 352.146,124.664 352.503 C 124.545 352.796,124.450 352.713,124.432 352.300 C 124.414 351.915,124.111 351.600,123.757 351.600 C 123.341 351.600,123.198 351.382,123.353 350.979 C 123.489 350.623,123.422 350.463,123.195 350.603 C 122.978 350.737,122.777 350.657,122.750 350.424 C 122.655 349.615,122.586 349.397,122.270 348.900 C 122.096 348.625,122.098 348.400,122.276 348.401 C 122.692 348.401,122.276 328.430,121.842 327.500 C 121.536 326.847,120.055 326.797,99.657 326.751 C 75.598 326.697,74.779 326.681,74.082 326.251 C 73.724 326.029,73.600 322.945,73.600 314.211 L 73.600 302.468 70.700 302.208 C 69.105 302.064,63.795 302.004,58.900 302.074 C 54.004 302.143,49.999 302.091,50.000 301.957 C 50.000 301.824,49.415 301.739,48.700 301.769 C 47.410 301.824,47.398 301.808,47.167 299.612 C 47.039 298.395,46.904 303.894,46.867 311.832 L 46.800 326.264 48.556 327.525 L 50.312 328.786 60.656 328.893 L 71.000 329.000 71.107 339.344 L 71.214 349.688 72.475 351.444 L 73.736 353.200 97.468 353.200 L 121.200 353.200 121.200 364.174 C 121.200 370.343,121.371 375.598,121.590 376.175 L 121.981 377.202 212.290 377.101 L 302.600 377.000 302.706 365.100 L 302.812 353.200 314.538 353.200 L 326.264 353.200 327.525 351.444 L 328.786 349.688 328.893 339.344 L 329.000 329.000 339.344 328.893 L 349.688 328.786 351.444 327.525 L 353.200 326.264 353.200 274.532 L 353.200 222.800 341.000 222.800 L 328.800 222.800 328.800 199.062 C 328.800 175.401,328.797 175.322,327.954 174.562 C 327.489 174.143,326.953 173.395,326.764 172.900 L 326.420 172.000 314.600 172.000 L 302.780 172.000 302.390 173.026 M72.058 174.538 C 71.227 175.423,71.200 175.770,71.200 185.726 L 71.200 196.000 61.600 196.000 C 55.467 196.000,52.000 196.144,52.000 196.400 C 52.000 196.841,69.414 196.977,71.537 196.553 L 72.774 196.305 72.935 186.453 C 73.024 181.034,73.192 176.015,73.309 175.299 C 73.578 173.641,73.147 173.379,72.058 174.538 M297.498 190.300 C 297.425 192.225,297.365 190.650,297.365 186.800 C 297.365 182.950,297.425 181.375,297.498 183.300 C 297.571 185.225,297.571 188.375,297.498 190.300 M49.129 196.284 C 47.014 196.607,46.505 198.882,48.586 198.709 C 49.511 198.633,49.778 198.328,49.647 197.500 C 49.621 197.335,49.735 197.229,49.900 197.264 C 50.488 197.388,51.592 196.710,51.374 196.358 C 51.150 195.995,51.039 195.992,49.129 196.284 M49.499 317.278 C 49.429 319.765,49.371 317.840,49.370 313.000 C 49.370 308.160,49.428 306.125,49.498 308.478 C 49.569 310.831,49.569 314.791,49.499 317.278 M80.305 351.875 C 79.922 351.975,79.202 351.979,78.705 351.883 C 78.207 351.787,78.520 351.705,79.400 351.701 C 80.280 351.696,80.687 351.775,80.305 351.875 " stroke="none" fill="#431b04" fill-rule="evenodd"></path><path id="path7" d="M174.900 76.012 C 174.405 76.211,173.973 76.425,173.939 76.487 C 173.342 77.594,173.514 97.647,174.122 97.839 C 174.519 97.965,175.387 98.818,176.051 99.734 L 177.257 101.400 188.129 101.600 L 199.000 101.800 199.223 112.600 C 199.345 118.540,199.480 123.432,199.523 123.471 C 199.565 123.511,199.883 123.826,200.229 124.171 C 200.871 124.814,222.580 125.166,224.159 124.560 C 226.100 123.815,226.389 122.274,226.461 112.261 L 226.530 102.806 224.644 101.803 C 222.758 100.800,222.756 100.800,211.386 100.800 L 200.015 100.800 199.814 99.900 C 199.703 99.405,199.564 93.960,199.506 87.800 C 199.448 81.640,199.254 76.375,199.076 76.100 C 198.688 75.499,176.378 75.418,174.900 76.012 M197.192 77.043 L 198.800 77.687 198.800 87.997 L 198.800 98.307 197.900 98.548 C 195.471 99.199,177.098 98.813,176.557 98.100 C 175.714 96.990,175.776 79.371,176.629 77.661 L 177.259 76.400 186.421 76.400 C 193.907 76.400,195.878 76.518,197.192 77.043 M223.367 102.243 C 224.185 102.557,224.319 120.462,223.520 122.672 L 223.039 124.000 212.620 123.994 C 206.763 123.990,201.937 123.822,201.600 123.609 C 201.001 123.231,200.422 103.961,200.968 102.540 C 201.184 101.976,221.953 101.700,223.367 102.243 M131.700 121.499 C 134.725 121.567,139.675 121.567,142.700 121.499 C 145.725 121.431,143.250 121.375,137.200 121.375 C 131.150 121.375,128.675 121.431,131.700 121.499 M121.375 137.200 C 121.375 143.250,121.431 145.725,121.499 142.700 C 121.567 139.675,121.567 134.725,121.499 131.700 C 121.431 128.675,121.375 131.150,121.375 137.200 M138.376 175.589 C 128.251 175.764,125.992 175.907,125.219 176.420 L 124.285 177.041 124.243 187.687 C 124.219 193.542,124.050 198.483,123.867 198.667 C 123.684 198.850,118.734 199.090,112.867 199.200 C 102.478 199.395,102.156 199.425,100.500 200.374 L 98.800 201.347 98.800 237.432 L 98.800 273.517 100.735 274.758 L 102.670 276.000 112.886 276.000 C 121.913 276.000,123.166 276.077,123.651 276.663 C 124.083 277.185,124.205 279.482,124.223 287.435 L 124.246 297.544 125.506 299.572 L 126.767 301.600 174.998 301.600 C 219.127 301.600,223.314 301.544,224.235 300.941 C 226.464 299.480,226.426 299.929,226.416 275.095 L 226.407 252.200 224.903 250.876 C 224.077 250.149,223.176 249.378,222.903 249.164 C 222.591 248.919,214.027 248.816,199.807 248.887 L 177.208 249.000 176.804 247.840 C 176.188 246.072,176.273 227.926,176.902 227.067 C 177.367 226.430,179.044 226.388,200.102 226.490 C 212.586 226.551,222.827 226.465,222.860 226.300 C 222.893 226.135,222.938 225.815,222.960 225.590 C 222.986 225.321,219.231 225.149,212.033 225.090 C 203.680 225.021,201.027 224.881,200.900 224.500 C 200.663 223.789,176.894 223.801,175.961 224.513 C 173.052 226.733,172.986 249.448,175.885 250.583 C 176.278 250.737,186.927 250.841,199.550 250.814 C 220.614 250.770,222.561 250.822,223.250 251.445 C 224.185 252.291,224.445 297.395,223.520 298.320 C 222.688 299.152,126.563 299.001,126.243 298.167 C 126.109 297.819,126.000 292.724,126.000 286.844 C 126.000 278.685,125.876 275.984,125.478 275.439 C 124.631 274.281,121.544 273.963,111.800 274.029 C 106.740 274.064,102.285 273.962,101.900 273.803 C 101.170 273.502,100.842 204.576,101.558 202.000 L 101.836 201.000 113.094 200.894 L 124.352 200.788 125.176 199.740 C 125.962 198.740,126.000 198.193,126.000 187.764 L 126.000 176.837 149.100 176.718 C 161.805 176.653,172.436 176.703,172.725 176.830 C 173.141 177.012,173.242 179.310,173.213 187.894 L 173.177 198.728 174.153 199.864 L 175.130 201.000 186.423 201.129 C 196.872 201.248,200.038 201.105,199.473 200.540 C 199.352 200.418,194.130 200.292,187.869 200.259 C 173.154 200.183,174.800 201.811,174.800 187.328 L 174.800 175.980 173.774 175.590 C 172.730 175.193,161.271 175.193,138.376 175.589 " stroke="none" fill="#b96a33" fill-rule="evenodd"></path><path id="path8" d="M151.602 125.533 C 149.143 125.766,149.199 125.488,149.209 137.349 C 149.217 147.426,149.273 148.271,149.985 149.200 L 150.753 150.200 161.958 150.400 C 170.414 150.551,173.289 150.728,173.681 151.121 C 174.082 151.524,174.207 154.377,174.232 163.644 L 174.263 175.645 186.306 175.612 C 201.745 175.569,200.059 174.011,199.912 188.188 C 199.850 194.135,199.646 199.313,199.458 199.697 C 199.024 200.583,200.303 201.198,200.834 200.358 C 201.029 200.051,201.191 194.674,201.194 188.408 L 201.200 177.017 199.924 175.147 C 198.311 172.783,198.187 172.762,186.248 172.815 L 177.000 172.857 177.000 162.728 L 177.000 152.600 187.600 152.400 L 198.200 152.200 199.756 151.100 L 201.312 150.000 212.415 150.000 L 223.519 150.000 225.800 151.200 L 228.081 152.400 237.541 152.406 C 242.743 152.409,247.255 152.574,247.567 152.771 C 248.175 153.156,248.408 172.126,247.812 172.720 C 247.657 172.874,243.162 173.014,237.823 173.032 C 227.028 173.067,227.093 173.052,224.288 176.166 L 223.176 177.400 223.223 200.000 C 223.249 212.430,223.163 222.870,223.031 223.200 C 222.825 223.717,221.268 223.784,211.796 223.688 C 202.573 223.593,200.800 223.666,200.800 224.137 C 200.800 225.028,203.414 225.242,213.512 225.178 C 218.649 225.145,222.954 225.220,223.078 225.345 C 223.439 225.705,224.740 224.860,225.227 223.949 C 225.542 223.361,225.657 216.380,225.620 200.215 L 225.566 177.314 226.569 176.657 C 227.430 176.093,228.953 176.000,237.336 176.000 C 248.693 176.000,249.420 175.908,250.217 174.366 C 251.217 172.433,251.061 152.411,250.036 151.144 L 249.272 150.200 237.136 149.970 C 230.461 149.844,224.460 149.574,223.800 149.370 C 223.079 149.146,218.051 149.123,211.200 149.311 C 204.930 149.484,194.352 149.714,187.694 149.824 L 175.589 150.023 175.194 148.985 C 174.970 148.395,174.800 143.221,174.800 136.982 L 174.800 126.015 173.900 125.791 C 172.905 125.543,153.824 125.322,151.602 125.533 M172.600 137.600 L 172.600 148.600 163.600 148.717 C 158.650 148.781,154.015 148.728,153.300 148.599 L 152.000 148.364 152.000 137.615 C 152.000 129.393,152.117 126.818,152.500 126.661 C 152.775 126.548,157.410 126.488,162.800 126.528 L 172.600 126.600 172.600 137.600 " stroke="none" fill="#a47c54" fill-rule="evenodd"></path></g></svg>